<svg width="145" height="24" viewBox="0 0 145 24" fill="none" xmlns="http://www.w3.org/2000/svg">
<path d="M2 19V5C2 5 2 5.37083 2 6.1125C2 6.85417 2 7.81667 2 9V15C2 16.1833 2 17.1458 2 17.8875C2 18.6292 2 19 2 19ZM2 21C1.45 21 0.979167 20.8042 0.5875 20.4125C0.195833 20.0208 0 19.55 0 19V5C0 4.45 0.195833 3.97917 0.5875 3.5875C0.979167 3.19583 1.45 3 2 3H16C16.55 3 17.0208 3.19583 17.4125 3.5875C17.8042 3.97917 18 4.45 18 5V7.5H16V5H2V19H16V16.5H18V19C18 19.55 17.8042 20.0208 17.4125 20.4125C17.0208 20.8042 16.55 21 16 21H2ZM10 17C9.45 17 8.97917 16.8042 8.5875 16.4125C8.19583 16.0208 8 15.55 8 15V9C8 8.45 8.19583 7.97917 8.5875 7.5875C8.97917 7.19583 9.45 7 10 7H17C17.55 7 18.0208 7.19583 18.4125 7.5875C18.8042 7.97917 19 8.45 19 9V15C19 15.55 18.8042 16.0208 18.4125 16.4125C18.0208 16.8042 17.55 17 17 17H10ZM17 15V9H10V15H17ZM13 13.5C13.4167 13.5 13.7708 13.3542 14.0625 13.0625C14.3542 12.7708 14.5 12.4167 14.5 12C14.5 11.5833 14.3542 11.2292 14.0625 10.9375C13.7708 10.6458 13.4167 10.5 13 10.5C12.5833 10.5 12.2292 10.6458 11.9375 10.9375C11.6458 11.2292 11.5 11.5833 11.5 12C11.5 12.4167 11.6458 12.7708 11.9375 13.0625C12.2292 13.3542 12.5833 13.5 13 13.5Z" fill="#13EC5B"/>
<path d="M28.12 18V6.48H35.0533V8.4053H30.0453V11.2773H34.0933V13.2027H30.0453V18H28.12ZM36.656 8.05065V6.28H38.5813V8.05065H36.656ZM36.656 18V9.36H38.5813V18H36.656ZM46.96 18V13.8373C46.96 13.5698 46.9407 13.2706 46.902 12.94C46.8633 12.6093 46.7769 12.2904 46.6427 11.9833C46.5084 11.6762 46.3067 11.424 46.0373 11.2266C45.768 11.0293 45.4027 10.9306 44.9413 10.9306C44.6978 10.9306 44.4562 10.9704 44.2166 11.05C43.9771 11.1295 43.7604 11.266 43.5666 11.4593C43.3729 11.6527 43.2171 11.9195 43.0993 12.26C42.9815 12.6004 42.9226 13.0338 42.9226 13.56L41.7786 13.0693C41.7786 12.336 41.9213 11.67 42.2067 11.0713C42.492 10.4727 42.9115 9.99689 43.4653 9.644C44.0191 9.29111 44.7022 9.11467 45.5146 9.11467C46.152 9.11467 46.6789 9.22044 47.0953 9.432C47.5117 9.64355 47.8426 9.91533 48.088 10.2473C48.3333 10.5793 48.5146 10.9322 48.632 11.306C48.7493 11.6798 48.8253 12.0335 48.86 12.3673C48.8946 12.7011 48.912 12.9707 48.912 13.176V18H46.96ZM40.9707 18V9.36H42.688V12.04H42.9226V18H40.9707ZM53.4107 18.24C52.7831 18.24 52.2536 18.1216 51.822 17.8847C51.3904 17.6478 51.0642 17.3318 50.8433 16.9367C50.6224 16.5416 50.512 16.1067 50.512 15.632C50.512 15.2142 50.5816 14.8398 50.7207 14.5087C50.8598 14.1776 51.0736 13.8904 51.362 13.6473C51.6505 13.4042 52.0222 13.2044 52.4773 13.048C52.8276 12.9333 53.2349 12.8318 53.6994 12.7433C54.1638 12.6549 54.6698 12.5718 55.2174 12.494C55.7649 12.4162 56.3387 12.3325 56.9387 12.2427L56.2453 12.6293C56.2498 12.0329 56.1167 11.5931 55.846 11.31C55.5753 11.0269 55.1164 10.8853 54.4693 10.8853C54.0818 10.8853 53.7069 10.9766 53.3446 11.1593C52.9824 11.342 52.7289 11.6533 52.584 12.0933L50.8213 11.5413C51.0356 10.8124 51.4433 10.2267 52.0447 9.784C52.646 9.34133 53.456 9.12 54.4747 9.12C55.2436 9.12 55.9191 9.24489 56.5013 9.49467C57.0835 9.74445 57.5173 10.1556 57.8027 10.728C57.9573 11.0302 58.0507 11.34 58.0827 11.6573C58.1147 11.9747 58.1307 12.3218 58.1307 12.6987V18H56.44V16.1253L56.72 16.4346C56.3307 17.056 55.8758 17.5122 55.3553 17.8033C54.8349 18.0944 54.1867 18.24 53.4107 18.24ZM53.792 16.7014C54.2293 16.7014 54.6022 16.6238 54.9107 16.4687C55.2191 16.3136 55.4658 16.1251 55.6507 15.9033C55.8356 15.6816 55.9591 15.4702 56.0214 15.2693C56.1218 15.024 56.1798 14.7429 56.1954 14.426C56.2109 14.1091 56.2187 13.8515 56.2187 13.6533L56.8107 13.832C56.2258 13.9253 55.7251 14.0058 55.3087 14.0733C54.8922 14.1409 54.5356 14.2051 54.2387 14.266C53.9418 14.3269 53.6782 14.3955 53.448 14.472C53.2267 14.5538 53.0384 14.6473 52.8833 14.7527C52.7282 14.858 52.6093 14.9804 52.5266 15.12C52.444 15.2595 52.4026 15.4222 52.4026 15.608C52.4026 15.8187 52.4553 16.0065 52.5606 16.1713C52.666 16.3362 52.8215 16.4658 53.0273 16.56C53.2331 16.6542 53.488 16.7014 53.792 16.7014ZM66.184 18V13.8373C66.184 13.5698 66.1647 13.2706 66.126 12.94C66.0873 12.6093 66.0009 12.2904 65.8667 11.9833C65.7324 11.6762 65.5307 11.424 65.2613 11.2266C64.992 11.0293 64.6267 10.9306 64.1653 10.9306C63.9218 10.9306 63.6802 10.9704 63.4406 11.05C63.2011 11.1295 62.9844 11.266 62.7906 11.4593C62.5969 11.6527 62.4411 11.9195 62.3233 12.26C62.2055 12.6004 62.1466 13.0338 62.1466 13.56L61.0026 13.0693C61.0026 12.336 61.1453 11.67 61.4307 11.0713C61.716 10.4727 62.1355 9.99689 62.6893 9.644C63.2431 9.29111 63.9262 9.11467 64.7386 9.11467C65.376 9.11467 65.9029 9.22044 66.3193 9.432C66.7357 9.64355 67.0666 9.91533 67.312 10.2473C67.5573 10.5793 67.7386 10.9322 67.856 11.306C67.9733 11.6798 68.0493 12.0335 68.084 12.3673C68.1186 12.7011 68.136 12.9707 68.136 13.176V18H66.184ZM60.1947 18V9.36H61.912V12.04H62.1466V18H60.1947ZM73.832 18.24C72.9422 18.24 72.1822 18.0413 71.552 17.644C70.9218 17.2467 70.4396 16.7042 70.1053 16.0167C69.7711 15.3291 69.6027 14.5502 69.6 13.68C69.6027 12.7973 69.7769 12.0124 70.1227 11.3253C70.4684 10.6382 70.9587 10.0989 71.5933 9.70733C72.228 9.31578 72.9831 9.12 73.8587 9.12C74.8409 9.12 75.672 9.36622 76.352 9.85866C77.032 10.3511 77.4738 11.024 77.6773 11.8773L75.7573 12.4026C75.6107 11.9369 75.3636 11.5742 75.016 11.3146C74.6684 11.0551 74.2738 10.9253 73.832 10.9253C73.3289 10.9253 72.9155 11.0449 72.592 11.284C72.2684 11.5231 72.0293 11.8502 71.8746 12.2653C71.72 12.6804 71.6417 13.152 71.64 13.68C71.6426 14.5022 71.8277 15.1669 72.1953 15.674C72.5629 16.1811 73.1084 16.4347 73.832 16.4347C74.3467 16.4347 74.7516 16.3169 75.0467 16.0814C75.3418 15.8458 75.5645 15.5076 75.7147 15.0667L77.6773 15.5013C77.4133 16.3813 76.948 17.0578 76.2813 17.5307C75.6147 18.0036 74.7982 18.24 73.832 18.24ZM82.9733 18.24C82.0995 18.24 81.3324 18.0504 80.672 17.6713C80.0116 17.2922 79.4958 16.7669 79.1247 16.0953C78.7536 15.4238 78.568 14.6498 78.568 13.7733C78.568 12.8293 78.75 12.0093 79.114 11.3133C79.478 10.6173 79.9824 10.0778 80.6273 9.69467C81.2722 9.31156 82.0187 9.12 82.8667 9.12C83.76 9.12 84.52 9.32889 85.1467 9.74667C85.7733 10.1644 86.2393 10.7547 86.5447 11.5173C86.85 12.28 86.9649 13.1804 86.8893 14.2187H84.976V13.5147C84.9707 12.5742 84.8053 11.8875 84.48 11.4547C84.1547 11.0218 83.6436 10.8053 82.9467 10.8053C82.1582 10.8053 81.5713 11.0498 81.186 11.5386C80.8006 12.0275 80.608 12.7413 80.608 13.68C80.608 14.5565 80.8006 15.2347 81.186 15.7147C81.5713 16.1947 82.1315 16.4347 82.8667 16.4347C83.3413 16.4347 83.7502 16.3289 84.0933 16.1174C84.4365 15.9058 84.7014 15.6009 84.888 15.2027L86.7947 15.776C86.4649 16.5564 85.954 17.1622 85.262 17.5933C84.57 18.0244 83.8071 18.24 82.9733 18.24ZM80 14.2187V12.76H85.9467V14.2187H80ZM90.4907 18V8.28531H86.76V6.48H96.1467V8.28531H92.416V18H90.4907ZM96.624 18V9.36H98.328V11.464L98.12 11.192C98.2284 10.904 98.372 10.6409 98.5506 10.4027C98.7293 10.1644 98.9431 9.968 99.192 9.81334C99.4044 9.66845 99.6397 9.556 99.898 9.476C100.156 9.396 100.421 9.34666 100.693 9.328C100.965 9.30933 101.231 9.32 101.491 9.36V11.16C101.231 11.0844 100.936 11.0609 100.605 11.0893C100.274 11.1178 99.9724 11.2098 99.7013 11.3653C99.4373 11.5102 99.2215 11.6944 99.054 11.918C98.8864 12.1415 98.7626 12.396 98.6826 12.6813C98.6026 12.9667 98.5626 13.2764 98.5626 13.6107V18H96.624ZM105.227 18.24C104.599 18.24 104.07 18.1216 103.638 17.8847C103.206 17.6478 102.88 17.3318 102.659 16.9367C102.438 16.5416 102.328 16.1067 102.328 15.632C102.328 15.2142 102.398 14.8398 102.537 14.5087C102.676 14.1776 102.89 13.8904 103.178 13.6473C103.466 13.4042 103.838 13.2044 104.293 13.048C104.644 12.9333 105.051 12.8318 105.515 12.7433C105.98 12.6549 106.486 12.5718 107.033 12.494C107.581 12.4162 108.155 12.3325 108.755 12.2427L108.061 12.6293C108.066 12.0329 107.933 11.5931 107.662 11.31C107.391 11.0269 106.932 10.8853 106.285 10.8853C105.898 10.8853 105.523 10.9766 105.161 11.1593C104.798 11.342 104.545 11.6533 104.4 12.0933L102.637 11.5413C102.852 10.8124 103.259 10.2267 103.861 9.784C104.462 9.34133 105.272 9.12 106.291 9.12C107.06 9.12 107.735 9.24489 108.317 9.49467C108.9 9.74445 109.333 10.1556 109.619 10.728C109.773 11.0302 109.867 11.34 109.899 11.6573C109.931 11.9747 109.947 12.3218 109.947 12.6987V18H108.256V16.1253L108.536 16.4346C108.147 17.056 107.692 17.5122 107.171 17.8033C106.651 18.0944 106.003 18.24 105.227 18.24ZM105.608 16.7014C106.045 16.7014 106.418 16.6238 106.727 16.4687C107.035 16.3136 107.282 16.1251 107.467 15.9033C107.652 15.6816 107.775 15.4702 107.837 15.2693C107.938 15.024 107.996 14.7429 108.011 14.426C108.027 14.1091 108.035 13.8515 108.035 13.6533L108.627 13.832C108.042 13.9253 107.541 14.0058 107.125 14.0733C106.708 14.1409 106.352 14.2051 106.055 14.266C105.758 14.3269 105.494 14.3955 105.264 14.472C105.043 14.5538 104.854 14.6473 104.699 14.7527C104.544 14.858 104.425 14.9804 104.343 15.12C104.26 15.2595 104.219 15.4222 104.219 15.608C104.219 15.8187 104.271 16.0065 104.377 16.1713C104.482 16.3362 104.638 16.4658 104.843 16.56C105.049 16.6542 105.304 16.7014 105.608 16.7014ZM115.776 18.24C114.886 18.24 114.126 18.0413 113.496 17.644C112.866 17.2467 112.384 16.7042 112.049 16.0167C111.715 15.3291 111.547 14.5502 111.544 13.68C111.547 12.7973 111.721 12.0124 112.067 11.3253C112.412 10.6382 112.903 10.0989 113.537 9.70733C114.172 9.31578 114.927 9.12 115.803 9.12C116.785 9.12 117.616 9.36622 118.296 9.85866C118.976 10.3511 119.418 11.024 119.621 11.8773L117.701 12.4026C117.555 11.9369 117.308 11.5742 116.96 11.3146C116.612 11.0551 116.218 10.9253 115.776 10.9253C115.273 10.9253 114.86 11.0449 114.536 11.284C114.212 11.5231 113.973 11.8502 113.819 12.2653C113.664 12.6804 113.586 13.152 113.584 13.68C113.587 14.5022 113.772 15.1669 114.139 15.674C114.507 16.1811 115.052 16.4347 115.776 16.4347C116.291 16.4347 116.696 16.3169 116.991 16.0814C117.286 15.8458 117.508 15.5076 117.659 15.0667L119.621 15.5013C119.357 16.3813 118.892 17.0578 118.225 17.5307C117.559 18.0036 116.742 18.24 115.776 18.24ZM121.219 18L121.232 6.48H123.184V13.52L126.344 9.36H128.752L125.4 13.68L129.04 18H126.488L123.184 13.84V18H121.219ZM133.605 18.24C132.732 18.24 131.964 18.0504 131.304 17.6713C130.644 17.2922 130.128 16.7669 129.757 16.0953C129.386 15.4238 129.2 14.6498 129.2 13.7733C129.2 12.8293 129.382 12.0093 129.746 11.3133C130.11 10.6173 130.614 10.0778 131.259 9.69467C131.904 9.31156 132.651 9.12 133.499 9.12C134.392 9.12 135.152 9.32889 135.779 9.74667C136.405 10.1644 136.871 10.7547 137.177 11.5173C137.482 12.28 137.597 13.1804 137.521 14.2187H135.608V13.5147C135.603 12.5742 135.437 11.8875 135.112 11.4547C134.787 11.0218 134.276 10.8053 133.579 10.8053C132.79 10.8053 132.203 11.0498 131.818 11.5386C131.433 12.0275 131.24 12.7413 131.24 13.68C131.24 14.5565 131.433 15.2347 131.818 15.7147C132.203 16.1947 132.764 16.4347 133.499 16.4347C133.973 16.4347 134.382 16.3289 134.725 16.1174C135.068 15.9058 135.333 15.6009 135.52 15.2027L137.427 15.776C137.097 16.5564 136.586 17.1622 135.894 17.5933C135.202 18.0244 134.439 18.24 133.605 18.24ZM130.632 14.2187V12.76H136.579V14.2187H130.632ZM139.312 18V9.36H141.016V11.464L140.808 11.192C140.916 10.904 141.06 10.6409 141.239 10.4027C141.417 10.1644 141.631 9.968 141.88 9.81334C142.092 9.66845 142.328 9.556 142.586 9.476C142.844 9.396 143.109 9.34666 143.381 9.328C143.653 9.30933 143.919 9.32 144.179 9.36V11.16C143.919 11.0844 143.624 11.0609 143.293 11.0893C142.962 11.1178 142.66 11.2098 142.389 11.3653C142.125 11.5102 141.91 11.6944 141.742 11.918C141.574 12.1415 141.451 12.396 141.371 12.6813C141.291 12.9667 141.251 13.2764 141.251 13.6107V18H139.312Z" fill="#0F172A"/>
</svg>
